<svg width="512" height="512" viewBox="0 0 512 512" fill="none" xmlns="http://www.w3.org/2000/svg">
<g clip-path="url(#clip0)">
<path opacity="0.4" d="M512 416C511.96 441.449 501.833 465.844 483.838 483.838C465.844 501.833 441.449 511.96 416 512H138.2C155.184 491.594 170.977 470.225 185.5 448H416C424.487 448 432.626 444.629 438.627 438.627C444.629 432.626 448 424.487 448 416C448 407.513 444.629 399.374 438.627 393.373C432.626 387.371 424.487 384 416 384H320C294.539 384 270.121 373.886 252.118 355.882C234.114 337.879 224 313.461 224 288C224 262.539 234.114 238.121 252.118 220.118C270.121 202.114 294.539 192 320 192H365.24C381.059 214.184 398.001 235.545 416 256H320C311.513 256 303.374 259.371 297.373 265.373C291.371 271.374 288 279.513 288 288C288 296.487 291.371 304.626 297.373 310.627C303.374 316.629 311.513 320 320 320H416C441.449 320.04 465.844 330.167 483.838 348.162C501.833 366.156 511.96 390.551 512 416Z" fill="url(#paint0_linear)"/>
<path d="M96 256C70.5392 256 46.1212 266.114 28.1177 284.118C10.1143 302.121 0 326.539 0 352C0 405 96 512 96 512C96 512 192 405 192 352C192 326.539 181.886 302.121 163.882 284.118C145.879 266.114 121.461 256 96 256ZM96 384C89.671 384 83.4841 382.123 78.2218 378.607C72.9594 375.091 68.8579 370.093 66.4359 364.246C64.0138 358.399 63.3801 351.965 64.6149 345.757C65.8496 339.55 68.8973 333.848 73.3726 329.373C77.8479 324.897 83.5497 321.85 89.7571 320.615C95.9645 319.38 102.399 320.014 108.246 322.436C114.093 324.858 119.091 328.959 122.607 334.222C126.123 339.484 128 345.671 128 352C128 360.487 124.629 368.626 118.627 374.627C112.626 380.629 104.487 384 96 384Z" fill="#8892BF"/>
<path d="M416 0C390.539 0 366.121 10.1143 348.118 28.1177C330.114 46.1212 320 70.5392 320 96C320 149 416 256 416 256C416 256 512 149 512 96C512 70.5392 501.886 46.1212 483.882 28.1177C465.879 10.1143 441.461 0 416 0ZM416 128C409.671 128 403.484 126.123 398.222 122.607C392.959 119.091 388.858 114.093 386.436 108.246C384.014 102.399 383.38 95.9645 384.615 89.7571C385.85 83.5497 388.897 77.8479 393.373 73.3726C397.848 68.8973 403.55 65.8496 409.757 64.6149C415.965 63.3801 422.399 64.0138 428.246 66.4359C434.093 68.8579 439.091 72.9594 442.607 78.2218C446.123 83.4841 448 89.671 448 96C448 104.487 444.629 112.626 438.627 118.627C432.626 124.629 424.487 128 416 128Z" fill="#43853D"/>
</g>
<defs>
<linearGradient id="paint0_linear" x1="325.1" y1="192" x2="325.1" y2="512" gradientUnits="userSpaceOnUse">
<stop stop-color="#43853D"/>
<stop offset="1" stop-color="#8892BF"/>
</linearGradient>
<clipPath id="clip0">
<rect width="512" height="512" fill="white"/>
</clipPath>
</defs>
</svg>
